<?xml version="1.0" encoding="utf-8"?>
<!-- Generator: Adobe Illustrator 14.0.0, SVG Export Plug-In . SVG Version: 6.00 Build 43363)  -->
<!DOCTYPE svg PUBLIC "-//W3C//DTD SVG 1.1//EN" "http://www.w3.org/Graphics/SVG/1.1/DTD/svg11.dtd">
<svg version="1.1" id="Layer_1" xmlns="http://www.w3.org/2000/svg" xmlns:xlink="http://www.w3.org/1999/xlink" x="0px" y="0px"
	 width="128px" height="128px" viewBox="0 0 128 128" enable-background="new 0 0 128 128" xml:space="preserve">
<path fill="#FFFFFF" d="M10.303,29.21h107.394c4.938,0,8.948-5.006,8.948-11.173c0-6.167-4.01-11.174-8.948-11.174H10.303
	c-4.94,0-8.949,5.006-8.949,11.174C1.354,24.204,5.363,29.21,10.303,29.21z M117.697,51.557H10.303
	c-4.94,0-8.949,5.006-8.949,11.174c0,6.165,4.009,11.173,8.949,11.173h107.394c4.938,0,8.948-5.008,8.948-11.173
	C126.646,56.563,122.636,51.557,117.697,51.557z M117.697,96.25H10.303c-4.94,0-8.949,5.009-8.949,11.175s4.009,11.173,8.949,11.173
	h107.394c4.938,0,8.948-5.007,8.948-11.173S122.636,96.25,117.697,96.25z"/>
</svg>
